<svg width="25" height="25" viewBox="0 0 25 25" fill="none" xmlns="http://www.w3.org/2000/svg">
<circle cx="15.8426" cy="3.77812" r="3.0269" fill="#09A66D"/>
<path fill-rule="evenodd" clip-rule="evenodd" d="M7.61663 20.8203C8.03863 20.8203 8.38163 21.1633 8.38163 21.5853C8.38163 22.0073 8.03863 22.3493 7.61663 22.3493C7.19463 22.3493 6.85263 22.0073 6.85263 21.5853C6.85263 21.1633 7.19463 20.8203 7.61663 20.8203Z" stroke="#222222" stroke-width="1.5" stroke-linecap="round" stroke-linejoin="round"/>
<path fill-rule="evenodd" clip-rule="evenodd" d="M18.869 20.8203C19.291 20.8203 19.634 21.1633 19.634 21.5853C19.634 22.0073 19.291 22.3493 18.869 22.3493C18.447 22.3493 18.104 22.0073 18.104 21.5853C18.104 21.1633 18.447 20.8203 18.869 20.8203Z" stroke="#222222" stroke-width="1.5" stroke-linecap="round" stroke-linejoin="round"/>
<path d="M2.94424 4.25L5.02424 4.61L5.98724 16.083C6.06524 17.018 6.84624 17.736 7.78424 17.736H18.6962C19.5922 17.736 20.3522 17.078 20.4812 16.19L21.4302 9.632C21.5472 8.823 20.9202 8.099 20.1032 8.099H5.35824" stroke="#222222" stroke-width="1.5" stroke-linecap="round" stroke-linejoin="round"/>
<path d="M14.3197 11.7969H17.0927" stroke="#222222" stroke-width="1.5" stroke-linecap="round" stroke-linejoin="round"/>
</svg>
