<svg width="250" height="116" viewBox="0 0 250 116" fill="none" xmlns="http://www.w3.org/2000/svg">
<rect width="250" height="116" fill="white"/>
<path d="M138.708 90V77.4H140.22V90H138.708ZM146.33 90C145.514 90 144.872 89.802 144.404 89.406C143.936 89.01 143.702 88.296 143.702 87.264V82.35H142.154V81.072H143.702L143.9 78.93H145.214V81.072H147.842V82.35H145.214V87.264C145.214 87.828 145.328 88.212 145.556 88.416C145.784 88.608 146.186 88.704 146.762 88.704H147.698V90H146.33ZM153.53 90.216C152.678 90.216 151.922 90.024 151.262 89.64C150.602 89.244 150.08 88.698 149.696 88.002C149.324 87.306 149.138 86.484 149.138 85.536C149.138 84.6 149.324 83.784 149.696 83.088C150.068 82.38 150.584 81.834 151.244 81.45C151.916 81.054 152.69 80.856 153.566 80.856C154.43 80.856 155.174 81.054 155.798 81.45C156.434 81.834 156.92 82.344 157.256 82.98C157.592 83.616 157.76 84.3 157.76 85.032C157.76 85.164 157.754 85.296 157.742 85.428C157.742 85.56 157.742 85.71 157.742 85.878H150.632C150.668 86.562 150.824 87.132 151.1 87.588C151.388 88.032 151.742 88.368 152.162 88.596C152.594 88.824 153.05 88.938 153.53 88.938C154.154 88.938 154.676 88.794 155.096 88.506C155.516 88.218 155.822 87.828 156.014 87.336H157.508C157.268 88.164 156.806 88.854 156.122 89.406C155.45 89.946 154.586 90.216 153.53 90.216ZM153.53 82.134C152.81 82.134 152.168 82.356 151.604 82.8C151.052 83.232 150.734 83.868 150.65 84.708H156.266C156.23 83.904 155.954 83.274 155.438 82.818C154.922 82.362 154.286 82.134 153.53 82.134ZM159.764 90V81.072H161.132L161.24 82.368C161.528 81.888 161.912 81.516 162.392 81.252C162.872 80.988 163.412 80.856 164.012 80.856C164.72 80.856 165.326 81 165.83 81.288C166.346 81.576 166.742 82.014 167.018 82.602C167.33 82.062 167.756 81.636 168.296 81.324C168.848 81.012 169.442 80.856 170.078 80.856C171.146 80.856 171.998 81.18 172.634 81.828C173.27 82.464 173.588 83.448 173.588 84.78V90H172.094V84.942C172.094 84.018 171.908 83.322 171.536 82.854C171.164 82.386 170.63 82.152 169.934 82.152C169.214 82.152 168.614 82.434 168.134 82.998C167.666 83.55 167.432 84.342 167.432 85.374V90H165.92V84.942C165.92 84.018 165.734 83.322 165.362 82.854C164.99 82.386 164.456 82.152 163.76 82.152C163.052 82.152 162.458 82.434 161.978 82.998C161.51 83.55 161.276 84.342 161.276 85.374V90H159.764ZM179.286 90.216C178.218 90.216 177.33 89.946 176.622 89.406C175.914 88.866 175.5 88.134 175.38 87.21H176.928C177.024 87.678 177.27 88.086 177.666 88.434C178.074 88.77 178.62 88.938 179.304 88.938C179.94 88.938 180.408 88.806 180.708 88.542C181.008 88.266 181.158 87.942 181.158 87.57C181.158 87.03 180.96 86.67 180.564 86.49C180.18 86.31 179.634 86.148 178.926 86.004C178.446 85.908 177.966 85.77 177.486 85.59C177.006 85.41 176.604 85.158 176.28 84.834C175.956 84.498 175.794 84.06 175.794 83.52C175.794 82.74 176.082 82.104 176.658 81.612C177.246 81.108 178.038 80.856 179.034 80.856C179.982 80.856 180.756 81.096 181.356 81.576C181.968 82.044 182.322 82.716 182.418 83.592H180.924C180.864 83.136 180.666 82.782 180.33 82.53C180.006 82.266 179.568 82.134 179.016 82.134C178.476 82.134 178.056 82.248 177.756 82.476C177.468 82.704 177.324 83.004 177.324 83.376C177.324 83.736 177.51 84.018 177.882 84.222C178.266 84.426 178.782 84.6 179.43 84.744C179.982 84.864 180.504 85.014 180.996 85.194C181.5 85.362 181.908 85.62 182.22 85.968C182.544 86.304 182.706 86.796 182.706 87.444C182.718 88.248 182.412 88.914 181.788 89.442C181.176 89.958 180.342 90.216 179.286 90.216Z" fill="black"/>
<path d="M127.125 57.576C124.981 57.576 123.045 57.192 121.317 56.424C119.589 55.624 118.197 54.44 117.141 52.872C116.117 51.304 115.573 49.352 115.509 47.016H119.589C119.621 48.936 120.293 50.6 121.605 52.008C122.917 53.384 124.757 54.072 127.125 54.072C129.493 54.072 131.269 53.416 132.453 52.104C133.669 50.792 134.277 49.208 134.277 47.352C134.277 45.784 133.893 44.504 133.125 43.512C132.389 42.52 131.381 41.784 130.101 41.304C128.853 40.824 127.477 40.584 125.973 40.584H123.477V37.176H125.973C128.149 37.176 129.845 36.68 131.061 35.688C132.309 34.696 132.933 33.304 132.933 31.512C132.933 30.008 132.437 28.776 131.445 27.816C130.485 26.824 129.045 26.328 127.125 26.328C125.269 26.328 123.781 26.888 122.661 28.008C121.541 29.096 120.917 30.472 120.789 32.136H116.709C116.805 30.312 117.285 28.696 118.149 27.288C119.045 25.88 120.261 24.792 121.797 24.024C123.333 23.224 125.109 22.824 127.125 22.824C129.301 22.824 131.109 23.208 132.549 23.976C134.021 24.744 135.125 25.768 135.861 27.048C136.629 28.328 137.013 29.736 137.013 31.272C137.013 32.968 136.549 34.52 135.621 35.928C134.693 37.304 133.301 38.232 131.445 38.712C133.429 39.128 135.077 40.072 136.389 41.544C137.701 43.016 138.357 44.952 138.357 47.352C138.357 49.208 137.925 50.92 137.061 52.488C136.229 54.024 134.981 55.256 133.317 56.184C131.653 57.112 129.589 57.576 127.125 57.576ZM157.984 57.576C155.008 57.576 152.432 56.856 150.256 55.416C148.112 53.944 146.464 51.912 145.312 49.32C144.16 46.696 143.584 43.656 143.584 40.2C143.584 36.744 144.16 33.72 145.312 31.128C146.464 28.504 148.112 26.472 150.256 25.032C152.432 23.56 155.008 22.824 157.984 22.824C160.96 22.824 163.52 23.56 165.664 25.032C167.808 26.472 169.456 28.504 170.608 31.128C171.76 33.72 172.336 36.744 172.336 40.2C172.336 43.656 171.76 46.696 170.608 49.32C169.456 51.912 167.808 53.944 165.664 55.416C163.52 56.856 160.96 57.576 157.984 57.576ZM157.984 54.024C159.936 54.024 161.68 53.48 163.216 52.392C164.784 51.272 166 49.688 166.864 47.64C167.76 45.56 168.208 43.08 168.208 40.2C168.208 37.32 167.76 34.856 166.864 32.808C166 30.76 164.784 29.192 163.216 28.104C161.68 26.984 159.936 26.424 157.984 26.424C156 26.424 154.24 26.984 152.704 28.104C151.168 29.192 149.952 30.76 149.056 32.808C148.16 34.856 147.712 37.32 147.712 40.2C147.712 43.08 148.16 45.56 149.056 47.64C149.952 49.688 151.168 51.272 152.704 52.392C154.24 53.48 156 54.024 157.984 54.024ZM191.265 57.576C188.289 57.576 185.713 56.856 183.537 55.416C181.393 53.944 179.745 51.912 178.593 49.32C177.441 46.696 176.865 43.656 176.865 40.2C176.865 36.744 177.441 33.72 178.593 31.128C179.745 28.504 181.393 26.472 183.537 25.032C185.713 23.56 188.289 22.824 191.265 22.824C194.241 22.824 196.801 23.56 198.945 25.032C201.089 26.472 202.737 28.504 203.889 31.128C205.041 33.72 205.617 36.744 205.617 40.2C205.617 43.656 205.041 46.696 203.889 49.32C202.737 51.912 201.089 53.944 198.945 55.416C196.801 56.856 194.241 57.576 191.265 57.576ZM191.265 54.024C193.217 54.024 194.961 53.48 196.497 52.392C198.065 51.272 199.281 49.688 200.145 47.64C201.041 45.56 201.489 43.08 201.489 40.2C201.489 37.32 201.041 34.856 200.145 32.808C199.281 30.76 198.065 29.192 196.497 28.104C194.961 26.984 193.217 26.424 191.265 26.424C189.281 26.424 187.521 26.984 185.985 28.104C184.449 29.192 183.233 30.76 182.337 32.808C181.441 34.856 180.993 37.32 180.993 40.2C180.993 43.08 181.441 45.56 182.337 47.64C183.233 49.688 184.449 51.272 185.985 52.392C187.521 53.48 189.281 54.024 191.265 54.024Z" fill="black"/>
<circle cx="61" cy="58" r="28" fill="#F3FBF8"/>
<path d="M67.4722 52H68.9217C70.1292 52 71.1392 51.1395 71.3712 50H69.9217C68.7147 50 67.7047 50.8605 67.4722 52Z" fill="#09A66D"/>
<path d="M56 47.5C56.0495 47.5 56.0975 47.506 56.147 47.5075L56.498 43.9975C56.5 43.703 56.297 43.5 56.0475 43.5H55.953C55.703 43.5 55.5 43.703 55.5 43.9525L55.8535 47.5075C55.9025 47.506 55.9505 47.5 56 47.5Z" fill="#09A66D"/>
<path d="M52 58C52 57.8295 52.0175 57.663 52.045 57.5H51V57.8425C51.3745 58.021 51.713 58.262 52 58.555V58Z" fill="#09A66D"/>
<path d="M51.5951 45.7781L53.3056 48.2961C53.4396 48.2096 53.5781 48.1296 53.7206 48.0561L52.6921 45.2276C52.6846 45.2076 52.6771 45.1891 52.6676 45.1711C52.5971 45.0301 52.4851 44.9326 52.3456 44.8866C52.2061 44.8401 52.0576 44.8511 51.9271 44.9166L51.8021 44.9791C51.5316 45.1141 51.4216 45.4441 51.5571 45.7146C51.5681 45.7346 51.5811 45.7571 51.5951 45.7781Z" fill="#09A66D"/>
<path d="M53.691 56.5H59.26L59.916 53.352C59.9715 53.084 60 52.8095 60 52.536C60 50.2945 58.2055 48.5 56 48.5C53.7945 48.5 52 50.2945 52 52.5C52 52.8095 52.0285 53.084 52.084 53.352L52.662 56.125C53.212 55.44 54.055 55 55 55V56C54.4975 56 54.043 56.1925 53.691 56.5ZM57.5 50.5H58.5V51.5H57.5V50.5ZM57.5 52.5H58.5V53.5H57.5V52.5ZM57.5 54.5H58.5V55.5H57.5V54.5Z" fill="#09A66D"/>
<path d="M50.5002 60.5H51.9497C51.7172 59.3605 50.7077 58.5 49.5002 58.5H48.0507C48.2827 59.6395 49.2927 60.5 50.5002 60.5Z" fill="#09A66D"/>
<path d="M60.4055 45.7765C60.4185 45.7565 60.432 45.7345 60.443 45.712C60.5775 45.4435 60.4675 45.1135 60.197 44.9785L60.072 44.916C59.941 44.851 59.7935 44.8395 59.6535 44.886C59.5145 44.9325 59.402 45.03 59.3365 45.161C59.3225 45.189 59.3145 45.2075 59.3075 45.2265L58.279 48.055C58.4215 48.1285 58.56 48.2085 58.6945 48.295L60.4055 45.7765Z" fill="#09A66D"/>
<path d="M59.4921 66.5H73.5001V63.5H58.8261C59.2676 64.4285 59.4916 65.449 59.4921 66.5ZM71.5001 64.5H72.5001V65.5H71.5001V64.5Z" fill="#09A66D"/>
<path d="M58.2316 70.5H72.0001C72.8271 70.5 73.5001 69.827 73.5001 69V67.5H59.4281C59.2686 68.6015 58.8476 69.623 58.2316 70.5ZM71.5001 68.5H72.5001V69.5H71.5001V68.5Z" fill="#09A66D"/>
<path d="M53.071 57.5C53.029 57.661 53 57.8265 53 58V58.5H73.5H74H75.5V57.5H53.071Z" fill="#09A66D"/>
<path d="M53 60.9335C53.1005 60.909 53.201 60.8835 53.2925 60.844C54.8175 60.1915 56.5925 60.5835 57.7055 61.821C57.8995 62.0365 58.0735 62.2655 58.237 62.4995H73.5V59.4995H53V60.9335ZM71.5 60.5H72.5V61.5H71.5V60.5Z" fill="#09A66D"/>
<path d="M56.9625 62.4899C56.1485 61.5849 54.801 61.2854 53.686 61.7634C53.4715 61.8549 53.2395 61.9179 53 61.9564V62.8979C53.4965 62.7129 53.968 62.3234 54.147 62.1454L54.8535 62.8534C54.7365 62.9709 53.6735 63.9999 52.5 63.9999C51.3265 63.9999 50.2635 62.9709 50.1465 62.8534L50.853 62.1454C51.032 62.3229 51.5035 62.7124 52 62.8979V61.4999H50.5C50.3305 61.4999 50.1655 61.4839 50.0025 61.4604C49.3015 61.5104 48.5605 61.9024 48.0145 62.5154C47.038 63.6139 46.5 65.0284 46.5 66.4999C46.5 68.1464 47.154 69.6819 48.3405 70.8239C49.527 71.9654 51.08 72.5549 52.739 72.4954C55.8295 72.3759 58.3575 69.8619 58.4945 66.7724C58.564 65.1869 58.02 63.6659 56.9625 62.4899ZM52.5 71.4999C49.743 71.4999 47.5 69.2569 47.5 66.4999H48.5C48.5 68.7054 50.2945 70.4999 52.5 70.4999V71.4999Z" fill="#09A66D"/>
<path d="M71.3854 56.5C71.1464 55.571 70.6899 54.7115 70.0409 53.99C69.2264 53.085 67.8789 52.7865 66.7639 53.2635C66.6789 53.3 66.5899 53.3305 66.4999 53.359V49C66.4999 48.173 67.1729 47.5 67.9999 47.5H68.4999V46.5H67.9999C66.6214 46.5 65.4999 47.6215 65.4999 49V53.359C65.4099 53.3305 65.3209 53.3 65.2359 53.2635C64.1214 52.7865 62.7734 53.085 61.9589 53.99C61.3099 54.7115 60.8534 55.5705 60.6144 56.5H65.9999H71.3854ZM63.7534 54.069C63.7609 54.073 64.5179 54.5 65.9999 54.5C67.4819 54.5 68.2389 54.073 68.2464 54.069L68.7569 54.9285C68.7184 54.952 67.7844 55.5 65.9999 55.5C64.2154 55.5 63.2814 54.952 63.2424 54.9285L63.7534 54.069Z" fill="#09A66D"/>
</svg>
