<svg width="250" height="116" viewBox="0 0 250 116" fill="none" xmlns="http://www.w3.org/2000/svg">
<rect width="250" height="116" fill="white"/>
<path d="M114.564 90V77.4H118.632C119.616 77.4 120.42 77.562 121.044 77.886C121.668 78.21 122.13 78.654 122.43 79.218C122.73 79.782 122.88 80.406 122.88 81.09C122.88 81.882 122.664 82.596 122.232 83.232C121.812 83.868 121.152 84.318 120.252 84.582L123.006 90H121.224L118.668 84.798H118.56H116.076V90H114.564ZM116.076 83.61H118.524C119.496 83.61 120.204 83.376 120.648 82.908C121.092 82.44 121.314 81.84 121.314 81.108C121.314 80.364 121.092 79.776 120.648 79.344C120.216 78.9 119.502 78.678 118.506 78.678H116.076V83.61ZM128.613 90.216C127.761 90.216 127.005 90.024 126.345 89.64C125.685 89.244 125.163 88.698 124.779 88.002C124.407 87.306 124.221 86.484 124.221 85.536C124.221 84.6 124.407 83.784 124.779 83.088C125.151 82.38 125.667 81.834 126.327 81.45C126.999 81.054 127.773 80.856 128.649 80.856C129.513 80.856 130.257 81.054 130.881 81.45C131.517 81.834 132.003 82.344 132.339 82.98C132.675 83.616 132.843 84.3 132.843 85.032C132.843 85.164 132.837 85.296 132.825 85.428C132.825 85.56 132.825 85.71 132.825 85.878H125.715C125.751 86.562 125.907 87.132 126.183 87.588C126.471 88.032 126.825 88.368 127.245 88.596C127.677 88.824 128.133 88.938 128.613 88.938C129.237 88.938 129.759 88.794 130.179 88.506C130.599 88.218 130.905 87.828 131.097 87.336H132.591C132.351 88.164 131.889 88.854 131.205 89.406C130.533 89.946 129.669 90.216 128.613 90.216ZM128.613 82.134C127.893 82.134 127.251 82.356 126.687 82.8C126.135 83.232 125.817 83.868 125.733 84.708H131.349C131.313 83.904 131.037 83.274 130.521 82.818C130.005 82.362 129.369 82.134 128.613 82.134ZM137.07 90L133.686 81.072H135.27L137.952 88.542L140.652 81.072H142.2L138.816 90H137.07ZM144.801 79.092C144.501 79.092 144.249 78.996 144.045 78.804C143.853 78.6 143.757 78.348 143.757 78.048C143.757 77.76 143.853 77.52 144.045 77.328C144.249 77.136 144.501 77.04 144.801 77.04C145.089 77.04 145.335 77.136 145.539 77.328C145.743 77.52 145.845 77.76 145.845 78.048C145.845 78.348 145.743 78.6 145.539 78.804C145.335 78.996 145.089 79.092 144.801 79.092ZM144.045 90V81.072H145.557V90H144.045ZM152.203 90.216C151.351 90.216 150.595 90.024 149.935 89.64C149.275 89.244 148.753 88.698 148.369 88.002C147.997 87.306 147.811 86.484 147.811 85.536C147.811 84.6 147.997 83.784 148.369 83.088C148.741 82.38 149.257 81.834 149.917 81.45C150.589 81.054 151.363 80.856 152.239 80.856C153.103 80.856 153.847 81.054 154.471 81.45C155.107 81.834 155.593 82.344 155.929 82.98C156.265 83.616 156.433 84.3 156.433 85.032C156.433 85.164 156.427 85.296 156.415 85.428C156.415 85.56 156.415 85.71 156.415 85.878H149.305C149.341 86.562 149.497 87.132 149.773 87.588C150.061 88.032 150.415 88.368 150.835 88.596C151.267 88.824 151.723 88.938 152.203 88.938C152.827 88.938 153.349 88.794 153.769 88.506C154.189 88.218 154.495 87.828 154.687 87.336H156.181C155.941 88.164 155.479 88.854 154.795 89.406C154.123 89.946 153.259 90.216 152.203 90.216ZM152.203 82.134C151.483 82.134 150.841 82.356 150.277 82.8C149.725 83.232 149.407 83.868 149.323 84.708H154.939C154.903 83.904 154.627 83.274 154.111 82.818C153.595 82.362 152.959 82.134 152.203 82.134ZM159.886 90L157.276 81.072H158.788L160.678 88.074L162.766 81.072H164.476L166.582 88.074L168.454 81.072H169.984L167.374 90H165.826L163.63 82.638L161.434 90H159.886ZM175.076 90.216C174.008 90.216 173.12 89.946 172.412 89.406C171.704 88.866 171.29 88.134 171.17 87.21H172.718C172.814 87.678 173.06 88.086 173.456 88.434C173.864 88.77 174.41 88.938 175.094 88.938C175.73 88.938 176.198 88.806 176.498 88.542C176.798 88.266 176.948 87.942 176.948 87.57C176.948 87.03 176.75 86.67 176.354 86.49C175.97 86.31 175.424 86.148 174.716 86.004C174.236 85.908 173.756 85.77 173.276 85.59C172.796 85.41 172.394 85.158 172.07 84.834C171.746 84.498 171.584 84.06 171.584 83.52C171.584 82.74 171.872 82.104 172.448 81.612C173.036 81.108 173.828 80.856 174.824 80.856C175.772 80.856 176.546 81.096 177.146 81.576C177.758 82.044 178.112 82.716 178.208 83.592H176.714C176.654 83.136 176.456 82.782 176.12 82.53C175.796 82.266 175.358 82.134 174.806 82.134C174.266 82.134 173.846 82.248 173.546 82.476C173.258 82.704 173.114 83.004 173.114 83.376C173.114 83.736 173.3 84.018 173.672 84.222C174.056 84.426 174.572 84.6 175.22 84.744C175.772 84.864 176.294 85.014 176.786 85.194C177.29 85.362 177.698 85.62 178.01 85.968C178.334 86.304 178.496 86.796 178.496 87.444C178.508 88.248 178.202 88.914 177.578 89.442C176.966 89.958 176.132 90.216 175.076 90.216ZM183.878 92.61C183.23 91.986 182.63 91.242 182.078 90.378C181.526 89.526 181.082 88.566 180.746 87.498C180.422 86.418 180.26 85.254 180.26 84.006C180.26 82.758 180.422 81.6 180.746 80.532C181.082 79.452 181.526 78.486 182.078 77.634C182.63 76.77 183.23 76.026 183.878 75.402H185.426V75.546C184.322 76.626 183.434 77.892 182.762 79.344C182.102 80.784 181.772 82.338 181.772 84.006C181.772 85.674 182.108 87.234 182.78 88.686C183.452 90.126 184.334 91.386 185.426 92.466V92.61H183.878ZM192.446 90V87.3H186.056V86.13L192.176 77.4H193.94V85.968H195.812V87.3H193.94V90H192.446ZM187.73 85.968H192.518V79.074L187.73 85.968ZM198.071 90.09C197.771 90.09 197.519 89.994 197.315 89.802C197.123 89.598 197.027 89.352 197.027 89.064C197.027 88.776 197.123 88.536 197.315 88.344C197.519 88.14 197.771 88.038 198.071 88.038C198.359 88.038 198.599 88.14 198.791 88.344C198.995 88.536 199.097 88.776 199.097 89.064C199.097 89.352 198.995 89.598 198.791 89.802C198.599 89.994 198.359 90.09 198.071 90.09ZM205.312 90.216C204.484 90.216 203.74 90.066 203.08 89.766C202.42 89.454 201.898 89.028 201.514 88.488C201.142 87.936 200.956 87.3 200.956 86.58C200.956 85.812 201.178 85.122 201.622 84.51C202.078 83.898 202.678 83.49 203.422 83.286C202.738 83.058 202.21 82.692 201.838 82.188C201.466 81.684 201.28 81.132 201.28 80.532C201.28 79.92 201.442 79.362 201.766 78.858C202.09 78.342 202.552 77.934 203.152 77.634C203.752 77.334 204.472 77.184 205.312 77.184C206.152 77.184 206.872 77.334 207.472 77.634C208.072 77.934 208.534 78.342 208.858 78.858C209.182 79.362 209.344 79.92 209.344 80.532C209.344 81.12 209.158 81.672 208.786 82.188C208.414 82.692 207.886 83.058 207.202 83.286C207.946 83.49 208.54 83.898 208.984 84.51C209.44 85.122 209.668 85.812 209.668 86.58C209.668 87.3 209.476 87.936 209.092 88.488C208.72 89.028 208.204 89.454 207.544 89.766C206.884 90.066 206.14 90.216 205.312 90.216ZM205.312 82.746C206.08 82.746 206.686 82.554 207.13 82.17C207.586 81.774 207.814 81.258 207.814 80.622C207.814 79.914 207.592 79.38 207.148 79.02C206.704 78.66 206.092 78.48 205.312 78.48C204.532 78.48 203.92 78.66 203.476 79.02C203.044 79.38 202.828 79.914 202.828 80.622C202.828 81.258 203.05 81.774 203.494 82.17C203.938 82.554 204.544 82.746 205.312 82.746ZM205.312 88.884C206.26 88.884 206.968 88.668 207.436 88.236C207.916 87.792 208.156 87.21 208.156 86.49C208.156 85.674 207.898 85.056 207.382 84.636C206.866 84.216 206.176 84.006 205.312 84.006C204.448 84.006 203.758 84.216 203.242 84.636C202.726 85.056 202.468 85.674 202.468 86.49C202.468 87.21 202.702 87.792 203.17 88.236C203.65 88.668 204.364 88.884 205.312 88.884ZM210.754 92.61V92.466C211.846 91.386 212.728 90.126 213.4 88.686C214.084 87.234 214.426 85.674 214.426 84.006C214.426 82.338 214.09 80.784 213.418 79.344C212.746 77.892 211.864 76.626 210.772 75.546V75.402H212.302C212.962 76.026 213.562 76.77 214.102 77.634C214.654 78.486 215.092 79.452 215.416 80.532C215.752 81.6 215.92 82.758 215.92 84.006C215.92 85.254 215.752 86.418 215.416 87.498C215.092 88.566 214.654 89.526 214.102 90.378C213.562 91.242 212.962 91.986 212.302 92.61H210.754Z" fill="black"/>
<path d="M123.915 57V54.168C126.187 52.376 128.331 50.568 130.347 48.744C132.395 46.888 134.203 45.064 135.771 43.272C137.371 41.48 138.619 39.72 139.515 37.992C140.443 36.264 140.907 34.6 140.907 33C140.907 31.816 140.699 30.712 140.283 29.688C139.899 28.664 139.259 27.848 138.363 27.24C137.467 26.6 136.251 26.28 134.715 26.28C133.243 26.28 132.011 26.616 131.019 27.288C130.027 27.928 129.275 28.792 128.763 29.88C128.283 30.968 128.043 32.136 128.043 33.384H124.155C124.155 31.176 124.619 29.288 125.547 27.72C126.475 26.12 127.739 24.904 129.339 24.072C130.939 23.24 132.747 22.824 134.763 22.824C137.739 22.824 140.171 23.672 142.059 25.368C143.979 27.032 144.939 29.528 144.939 32.856C144.939 34.84 144.443 36.808 143.451 38.76C142.459 40.68 141.195 42.552 139.659 44.376C138.123 46.168 136.475 47.848 134.715 49.416C132.987 50.984 131.371 52.392 129.867 53.64H146.091V57H123.915ZM164.547 57.576C161.571 57.576 158.995 56.856 156.819 55.416C154.675 53.944 153.027 51.912 151.875 49.32C150.723 46.696 150.147 43.656 150.147 40.2C150.147 36.744 150.723 33.72 151.875 31.128C153.027 28.504 154.675 26.472 156.819 25.032C158.995 23.56 161.571 22.824 164.547 22.824C167.523 22.824 170.083 23.56 172.227 25.032C174.371 26.472 176.019 28.504 177.171 31.128C178.323 33.72 178.899 36.744 178.899 40.2C178.899 43.656 178.323 46.696 177.171 49.32C176.019 51.912 174.371 53.944 172.227 55.416C170.083 56.856 167.523 57.576 164.547 57.576ZM164.547 54.024C166.499 54.024 168.243 53.48 169.779 52.392C171.347 51.272 172.563 49.688 173.427 47.64C174.323 45.56 174.771 43.08 174.771 40.2C174.771 37.32 174.323 34.856 173.427 32.808C172.563 30.76 171.347 29.192 169.779 28.104C168.243 26.984 166.499 26.424 164.547 26.424C162.563 26.424 160.803 26.984 159.267 28.104C157.731 29.192 156.515 30.76 155.619 32.808C154.723 34.856 154.275 37.32 154.275 40.2C154.275 43.08 154.723 45.56 155.619 47.64C156.515 49.688 157.731 51.272 159.267 52.392C160.803 53.48 162.563 54.024 164.547 54.024ZM184.724 57V23.4H188.756V38.616L202.772 23.4H207.86L195.38 36.792L208.052 57H203.156L192.5 39.912L188.756 43.896V57H184.724Z" fill="black"/>
<circle cx="61" cy="58" r="28" fill="#F3FBF8"/>
<g clip-path="url(#clip0_32_175)">
<path d="M76.9542 54.3286C76.8439 53.9891 76.5506 53.7418 76.1974 53.6905L66.2773 52.2489L61.8408 43.2597C61.6829 42.9397 61.357 42.7372 61.0001 42.7372C60.6433 42.7372 60.3174 42.9397 60.1595 43.2597L55.7227 52.2489L45.8028 53.6905C45.4497 53.7418 45.1562 53.9891 45.0461 54.3285C44.9357 54.668 45.0277 55.0405 45.2832 55.2895L52.4612 62.2867L50.767 72.1668C50.7067 72.5186 50.8513 72.874 51.14 73.0838C51.4287 73.2935 51.8113 73.3213 52.1273 73.1551L61.0001 68.4903L69.8726 73.1551C70.0098 73.2272 70.1596 73.2628 70.3088 73.2628C70.5032 73.2628 70.6967 73.2024 70.8599 73.0838C71.1486 72.874 71.2932 72.5185 71.2329 72.1668L69.5382 62.2867L76.7169 55.2895C76.9725 55.0405 77.0645 54.6679 76.9542 54.3286Z" fill="#FED42D"/>
<path d="M76.9542 54.3286C76.8439 53.9891 76.5506 53.7418 76.1974 53.6905L66.2773 52.2489L61.8408 43.2597C61.6829 42.9397 61.357 42.7372 61.0002 42.7372V68.4903L69.8727 73.1551C70.0099 73.2273 70.1596 73.2628 70.3089 73.2628C70.5033 73.2628 70.6968 73.2025 70.86 73.0839C71.1487 72.8741 71.2933 72.5186 71.233 72.1669L69.5382 62.2867L76.7169 55.2895C76.9725 55.0405 77.0645 54.6679 76.9542 54.3286Z" fill="#FCBF29"/>
</g>
<defs>
<clipPath id="clip0_32_175">
<rect width="32" height="32" fill="white" transform="translate(45 42)"/>
</clipPath>
</defs>
</svg>
