<svg width="250" height="116" viewBox="0 0 250 116" fill="none" xmlns="http://www.w3.org/2000/svg">
<rect width="250" height="116" fill="white"/>
<path d="M118.999 90.216C118.135 90.216 117.349 90.048 116.641 89.712C115.945 89.364 115.387 88.83 114.967 88.11C114.547 87.39 114.337 86.472 114.337 85.356V77.4H115.849V85.374C115.849 86.598 116.143 87.486 116.731 88.038C117.319 88.59 118.087 88.866 119.035 88.866C119.983 88.866 120.745 88.59 121.321 88.038C121.897 87.486 122.185 86.598 122.185 85.374V77.4H123.697V85.356C123.697 86.472 123.487 87.39 123.067 88.11C122.647 88.83 122.083 89.364 121.375 89.712C120.667 90.048 119.875 90.216 118.999 90.216ZM129.588 90.216C128.52 90.216 127.632 89.946 126.924 89.406C126.216 88.866 125.802 88.134 125.682 87.21H127.23C127.326 87.678 127.572 88.086 127.968 88.434C128.376 88.77 128.922 88.938 129.606 88.938C130.242 88.938 130.71 88.806 131.01 88.542C131.31 88.266 131.46 87.942 131.46 87.57C131.46 87.03 131.262 86.67 130.866 86.49C130.482 86.31 129.936 86.148 129.228 86.004C128.748 85.908 128.268 85.77 127.788 85.59C127.308 85.41 126.906 85.158 126.582 84.834C126.258 84.498 126.096 84.06 126.096 83.52C126.096 82.74 126.384 82.104 126.96 81.612C127.548 81.108 128.34 80.856 129.336 80.856C130.284 80.856 131.058 81.096 131.658 81.576C132.27 82.044 132.624 82.716 132.72 83.592H131.226C131.166 83.136 130.968 82.782 130.632 82.53C130.308 82.266 129.87 82.134 129.318 82.134C128.778 82.134 128.358 82.248 128.058 82.476C127.77 82.704 127.626 83.004 127.626 83.376C127.626 83.736 127.812 84.018 128.184 84.222C128.568 84.426 129.084 84.6 129.732 84.744C130.284 84.864 130.806 85.014 131.298 85.194C131.802 85.362 132.21 85.62 132.522 85.968C132.846 86.304 133.008 86.796 133.008 87.444C133.02 88.248 132.714 88.914 132.09 89.442C131.478 89.958 130.644 90.216 129.588 90.216ZM139.182 90.216C138.33 90.216 137.574 90.024 136.914 89.64C136.254 89.244 135.732 88.698 135.348 88.002C134.976 87.306 134.79 86.484 134.79 85.536C134.79 84.6 134.976 83.784 135.348 83.088C135.72 82.38 136.236 81.834 136.896 81.45C137.568 81.054 138.342 80.856 139.218 80.856C140.082 80.856 140.826 81.054 141.45 81.45C142.086 81.834 142.572 82.344 142.908 82.98C143.244 83.616 143.412 84.3 143.412 85.032C143.412 85.164 143.406 85.296 143.394 85.428C143.394 85.56 143.394 85.71 143.394 85.878H136.284C136.32 86.562 136.476 87.132 136.752 87.588C137.04 88.032 137.394 88.368 137.814 88.596C138.246 88.824 138.702 88.938 139.182 88.938C139.806 88.938 140.328 88.794 140.748 88.506C141.168 88.218 141.474 87.828 141.666 87.336H143.16C142.92 88.164 142.458 88.854 141.774 89.406C141.102 89.946 140.238 90.216 139.182 90.216ZM139.182 82.134C138.462 82.134 137.82 82.356 137.256 82.8C136.704 83.232 136.386 83.868 136.302 84.708H141.918C141.882 83.904 141.606 83.274 141.09 82.818C140.574 82.362 139.938 82.134 139.182 82.134ZM145.416 90V81.072H146.784L146.91 82.782C147.186 82.194 147.606 81.726 148.17 81.378C148.734 81.03 149.43 80.856 150.258 80.856V82.44H149.844C149.316 82.44 148.83 82.536 148.386 82.728C147.942 82.908 147.588 83.22 147.324 83.664C147.06 84.108 146.928 84.72 146.928 85.5V90H145.416ZM162.533 90.216C161.297 90.216 160.211 89.946 159.275 89.406C158.351 88.854 157.625 88.086 157.097 87.102C156.581 86.118 156.323 84.984 156.323 83.7C156.323 82.416 156.581 81.288 157.097 80.316C157.625 79.332 158.351 78.564 159.275 78.012C160.211 77.46 161.297 77.184 162.533 77.184C163.781 77.184 164.867 77.46 165.791 78.012C166.727 78.564 167.453 79.332 167.969 80.316C168.485 81.288 168.743 82.416 168.743 83.7C168.743 84.984 168.485 86.118 167.969 87.102C167.453 88.086 166.727 88.854 165.791 89.406C164.867 89.946 163.781 90.216 162.533 90.216ZM162.533 88.884C163.457 88.884 164.267 88.68 164.963 88.272C165.671 87.852 166.217 87.258 166.601 86.49C166.997 85.71 167.195 84.78 167.195 83.7C167.195 82.62 166.997 81.696 166.601 80.928C166.217 80.16 165.671 79.572 164.963 79.164C164.267 78.744 163.457 78.534 162.533 78.534C161.609 78.534 160.793 78.744 160.085 79.164C159.389 79.572 158.843 80.16 158.447 80.928C158.063 81.696 157.871 82.62 157.871 83.7C157.871 84.78 158.063 85.71 158.447 86.49C158.843 87.258 159.389 87.852 160.085 88.272C160.793 88.68 161.609 88.884 162.533 88.884ZM170.834 90V81.072H172.202L172.328 82.782C172.604 82.194 173.024 81.726 173.588 81.378C174.152 81.03 174.848 80.856 175.676 80.856V82.44H175.262C174.734 82.44 174.248 82.536 173.804 82.728C173.36 82.908 173.006 83.22 172.742 83.664C172.478 84.108 172.346 84.72 172.346 85.5V90H170.834ZM181.089 90.216C180.201 90.216 179.421 90.012 178.749 89.604C178.089 89.196 177.573 88.638 177.201 87.93C176.841 87.222 176.661 86.418 176.661 85.518C176.661 84.618 176.847 83.82 177.219 83.124C177.591 82.416 178.107 81.864 178.767 81.468C179.427 81.06 180.207 80.856 181.107 80.856C181.839 80.856 182.487 81.006 183.051 81.306C183.615 81.606 184.053 82.026 184.365 82.566V77.04H185.877V90H184.509L184.365 88.524C184.077 88.956 183.663 89.346 183.123 89.694C182.583 90.042 181.905 90.216 181.089 90.216ZM181.251 88.902C181.851 88.902 182.379 88.764 182.835 88.488C183.303 88.2 183.663 87.804 183.915 87.3C184.179 86.796 184.311 86.208 184.311 85.536C184.311 84.864 184.179 84.276 183.915 83.772C183.663 83.268 183.303 82.878 182.835 82.602C182.379 82.314 181.851 82.17 181.251 82.17C180.663 82.17 180.135 82.314 179.667 82.602C179.211 82.878 178.851 83.268 178.587 83.772C178.335 84.276 178.209 84.864 178.209 85.536C178.209 86.208 178.335 86.796 178.587 87.3C178.851 87.804 179.211 88.2 179.667 88.488C180.135 88.764 180.663 88.902 181.251 88.902ZM192.356 90.216C191.504 90.216 190.748 90.024 190.088 89.64C189.428 89.244 188.906 88.698 188.522 88.002C188.15 87.306 187.964 86.484 187.964 85.536C187.964 84.6 188.15 83.784 188.522 83.088C188.894 82.38 189.41 81.834 190.07 81.45C190.742 81.054 191.516 80.856 192.392 80.856C193.256 80.856 194 81.054 194.624 81.45C195.26 81.834 195.746 82.344 196.082 82.98C196.418 83.616 196.586 84.3 196.586 85.032C196.586 85.164 196.58 85.296 196.568 85.428C196.568 85.56 196.568 85.71 196.568 85.878H189.458C189.494 86.562 189.65 87.132 189.926 87.588C190.214 88.032 190.568 88.368 190.988 88.596C191.42 88.824 191.876 88.938 192.356 88.938C192.98 88.938 193.502 88.794 193.922 88.506C194.342 88.218 194.648 87.828 194.84 87.336H196.334C196.094 88.164 195.632 88.854 194.948 89.406C194.276 89.946 193.412 90.216 192.356 90.216ZM192.356 82.134C191.636 82.134 190.994 82.356 190.43 82.8C189.878 83.232 189.56 83.868 189.476 84.708H195.092C195.056 83.904 194.78 83.274 194.264 82.818C193.748 82.362 193.112 82.134 192.356 82.134ZM198.59 90V81.072H199.958L200.084 82.782C200.36 82.194 200.78 81.726 201.344 81.378C201.908 81.03 202.604 80.856 203.432 80.856V82.44H203.018C202.49 82.44 202.004 82.536 201.56 82.728C201.116 82.908 200.762 83.22 200.498 83.664C200.234 84.108 200.102 84.72 200.102 85.5V90H198.59Z" fill="black"/>
<path d="M127.797 57.576C125.653 57.576 123.717 57.192 121.989 56.424C120.261 55.624 118.869 54.44 117.813 52.872C116.789 51.304 116.245 49.352 116.181 47.016H120.261C120.293 48.936 120.965 50.6 122.277 52.008C123.589 53.384 125.429 54.072 127.797 54.072C130.165 54.072 131.941 53.416 133.125 52.104C134.341 50.792 134.949 49.208 134.949 47.352C134.949 45.784 134.565 44.504 133.797 43.512C133.061 42.52 132.053 41.784 130.773 41.304C129.525 40.824 128.149 40.584 126.645 40.584H124.149V37.176H126.645C128.821 37.176 130.517 36.68 131.733 35.688C132.981 34.696 133.605 33.304 133.605 31.512C133.605 30.008 133.109 28.776 132.117 27.816C131.157 26.824 129.717 26.328 127.797 26.328C125.941 26.328 124.453 26.888 123.333 28.008C122.213 29.096 121.589 30.472 121.461 32.136H117.381C117.477 30.312 117.957 28.696 118.821 27.288C119.717 25.88 120.933 24.792 122.469 24.024C124.005 23.224 125.781 22.824 127.797 22.824C129.973 22.824 131.781 23.208 133.221 23.976C134.693 24.744 135.797 25.768 136.533 27.048C137.301 28.328 137.685 29.736 137.685 31.272C137.685 32.968 137.221 34.52 136.293 35.928C135.365 37.304 133.973 38.232 132.117 38.712C134.101 39.128 135.749 40.072 137.061 41.544C138.373 43.016 139.029 44.952 139.029 47.352C139.029 49.208 138.597 50.92 137.733 52.488C136.901 54.024 135.653 55.256 133.989 56.184C132.325 57.112 130.261 57.576 127.797 57.576ZM158.656 57.576C155.68 57.576 153.104 56.856 150.928 55.416C148.784 53.944 147.136 51.912 145.984 49.32C144.832 46.696 144.256 43.656 144.256 40.2C144.256 36.744 144.832 33.72 145.984 31.128C147.136 28.504 148.784 26.472 150.928 25.032C153.104 23.56 155.68 22.824 158.656 22.824C161.632 22.824 164.192 23.56 166.336 25.032C168.48 26.472 170.128 28.504 171.28 31.128C172.432 33.72 173.008 36.744 173.008 40.2C173.008 43.656 172.432 46.696 171.28 49.32C170.128 51.912 168.48 53.944 166.336 55.416C164.192 56.856 161.632 57.576 158.656 57.576ZM158.656 54.024C160.608 54.024 162.352 53.48 163.888 52.392C165.456 51.272 166.672 49.688 167.536 47.64C168.432 45.56 168.88 43.08 168.88 40.2C168.88 37.32 168.432 34.856 167.536 32.808C166.672 30.76 165.456 29.192 163.888 28.104C162.352 26.984 160.608 26.424 158.656 26.424C156.672 26.424 154.912 26.984 153.376 28.104C151.84 29.192 150.624 30.76 149.728 32.808C148.832 34.856 148.384 37.32 148.384 40.2C148.384 43.08 148.832 45.56 149.728 47.64C150.624 49.688 151.84 51.272 153.376 52.392C154.912 53.48 156.672 54.024 158.656 54.024ZM178.833 57V23.4H182.865V38.616L196.881 23.4H201.969L189.489 36.792L202.161 57H197.265L186.609 39.912L182.865 43.896V57H178.833Z" fill="black"/>
<circle cx="61" cy="58" r="28" fill="#F3FBF8"/>
<g clip-path="url(#clip0_32_160)">
<path d="M61.0023 42C56.4308 42 52.6939 45.7369 52.6939 50.3084C52.6939 54.8799 56.4308 58.6168 61.0023 58.6168C65.5737 58.6168 69.3107 54.8799 69.3107 50.3084C69.3107 45.7369 65.5737 42 61.0023 42Z" fill="#09A66D"/>
<path d="M75.2607 65.2563C75.043 64.7121 74.7528 64.2041 74.4263 63.7325C72.7573 61.2653 70.1814 59.6327 67.2789 59.2336C66.9161 59.1973 66.517 59.2698 66.2268 59.4875C64.7029 60.6123 62.8889 61.1927 61.0023 61.1927C59.1156 61.1927 57.3016 60.6123 55.7777 59.4875C55.4875 59.2698 55.0884 59.161 54.7256 59.2336C51.8231 59.6327 49.2109 61.2653 47.5782 63.7325C47.2517 64.2041 46.9614 64.7484 46.7438 65.2563C46.635 65.474 46.6712 65.728 46.78 65.9457C47.0703 66.4536 47.4331 66.9616 47.7596 67.3969C48.2675 68.0863 48.8118 68.703 49.4286 69.2835C49.9365 69.7914 50.517 70.2631 51.0975 70.7348C53.9637 72.8754 57.4105 74 60.966 74C64.5216 74 67.9683 72.8753 70.8345 70.7348C71.415 70.2994 71.9954 69.7914 72.5034 69.2835C73.0839 68.703 73.6644 68.0862 74.1724 67.3969C74.5352 66.9252 74.8618 66.4536 75.152 65.9457C75.3333 65.728 75.3695 65.4739 75.2607 65.2563Z" fill="#09A66D"/>
</g>
<defs>
<clipPath id="clip0_32_160">
<rect width="32" height="32" fill="white" transform="translate(45 42)"/>
</clipPath>
</defs>
</svg>
